# xmcd
#
# Track frame offsets:
#	150
#	14622
#	27223
#	39845
#	55109
#	67623
#	81749
#	94729
#	107736
#	121026
#	134370
#	147110
#	160776
#	174487
#	187594
#	201000
#	213287
#	227126
#	240022
#	253023
#	266876
#	282885
#	295415
#
# Disc length: 4097 seconds
#
# Revision: 0
# Processed by: cddbd v1.4PL0 Copyright (c) Steve Scherf et al.
# Submitted via: dBpowerAMP V4.0
#
DISCID=370fff17
DTITLE=Blind Blake - Georgia Bound
DYEAR=1999
DGENRE=Blues
TTITLE0=West Coast Blues (take 2)
TTITLE1=Goodbye Mama Moan
TTITLE2=Notoriety Woman Blues
TTITLE3=Georgia Bound
TTITLE4=Come On Boys Let's Do That Messin' Around
TTITLE5=Walkin
TTITLE6=Southern Rag
TTITLE7=Rumblin' and Ramblin' Boa Constrictor Blues
TTITLE8=Fighting the Jug
TTITLE9=Too Tight Blues (no. 2)
TTITLE10=Chump Man Blues
TTITLE11=Guitar Chimes
TTITLE12=Rope Stretchin' Blues (part 1)
TTITLE13=No Dough Blues
TTITLE14=Diddie Wa Diddie
TTITLE15=That Lovin' I Crave
TTITLE16=Skeedle Loo Doo (part 2)
TTITLE17=Leavin' Gal Blues
TTITLE18=Police Dog Blues
TTITLE19=Sea Board Stomp
TTITLE20=Depression's Gone From Me Blues
TTITLE21=Slippery Rag
TTITLE22=One Time Blues
EXTD=
EXTT0=
EXTT1=
EXTT2=
EXTT3=
EXTT4=
EXTT5=
EXTT6=
EXTT7=
EXTT8=
EXTT9=
EXTT10=
EXTT11=
EXTT12=
EXTT13=
EXTT14=
EXTT15=
EXTT16=
EXTT17=
EXTT18=
EXTT19=
EXTT20=
EXTT21=
EXTT22=
PLAYORDER=
